#!OML:ASF F:\VICON\USERDATA\Patient Classification 1\PLAYGROUND\JustinFriday\JustinFriday.ASF
:FULLY-SPECIFIED
:DEGREES
2116
root -1.3694 17.2848 45.5835 -547.502 -231.751 175.175
lowerback 14.947 2.68263 3.78069
upperback 2.92775 4.41318 3.06706
thorax -5.21943 2.16843 0.258627
lowerneck 0.535747 0.19875 -9.94453
upperneck 19.9394 0.000613822 7.16861
head 5.9103 -0.0630893 3.98667
rclavicle 9.20373e-014 3.26007e-014
rhumerus -38.9876 -5.95879 -59.8129
rradius 47.6808
rwrist 359.178
rhand -13.0468 -27.8863
rfingers 7.12502
rthumb 13.048 -57.4582
lclavicle 9.20373e-014 3.26007e-014
lhumerus -27.1111 53.8702 2.91966
lradius 56.5962
lwrist 56.5972
lhand -5.95992 15.882
lfingers 7.12502
lthumb 19.8709 44.8861
rfemur -26.3253 3.8726 16.5082
rtibia 29.3211
rfoot 0.194193 3.28994
rtoes 15.5176
lfemur -0.216485 -18.6832 -12.6877
ltibia 50.7819
lfoot 1.18216 -17.2176
ltoes -14.6495
2117
root -1.31099 17.3144 45.7298 -548.121 -232.563 174.421
lowerback 15.8624 2.50571 4.53655
upperback 2.41506 4.36611 2.84664
thorax -6.19265 2.09796 -0.447954
lowerneck 0.816149 0.185098 -9.97663
upperneck 20.1589 -0.10388 7.60973
head 5.9351 -0.0858179 4.13559
rclavicle 4.05521e-014 -3.57812e-014
rhumerus -39.5219 -5.16989 -60.2931
rradius 47.7029
rwrist 358.477
rhand -13.559 -28.0269
rfingers 7.12502
rthumb 12.5543 -57.6297
lclavicle 4.05521e-014 -3.57812e-014
lhumerus -26.6318 53.0567 2.92474
lradius 56.3871
lwrist 54.7998
lhand -7.84116 16.2737
lfingers 7.12502
lthumb 18.0617 45.4551
rfemur -25.7044 3.34973 17.1329
rtibia 29.412
rfoot -0.243641 3.14853
rtoes 16.3492
lfemur -2.83564 -18.5583 -11.932
ltibia 54.7409
lfoot 3.97305 -17.2412
ltoes -13.0634
2118
root -1.25029 17.3316 45.8716 -549.338 -233.349 173.289
lowerback 16.2739 2.398 5.18894
upperback 2.47859 4.38255 3.01891
thorax -6.31506 2.0936 -0.652176
lowerneck 1.16484 0.080437 -10.2745
upperneck 19.7618 -0.300838 7.88362
head 5.7668 -0.186917 4.25599
rclavicle -2.27608e-014 -1.90833e-014
rhumerus -39.36 -5.15394 -60.0841
rradius 47.6504
rwrist 358.51
rhand -13.4143 -28.0817
rfingers 7.12502
rthumb 12.6938 -57.6759
lclavicle -2.27608e-014 -1.90833e-014
lhumerus -26.4962 52.7092 3.43994
lradius 56.3943
lwrist 53.2417
lhand -9.0885 16.8368
lfingers 7.12502
lthumb 16.8612 46.1247
rfemur -24.7332 2.83824 18.0047
rtibia 29.3928
rfoot -0.328487 3.17473
rtoes 15.1832
lfemur -4.95186 -18.5727 -11.1861
ltibia 58.6413
lfoot 5.01599 -17.2815
ltoes -13.9423
2119
root -1.19581 17.356 46.0035 -552.474 -233.96 169.632
lowerback 16.6445 2.11079 7.13512
upperback 2.4569 4.45489 3.72433
thorax -6.4517 2.09503 -1.01894
lowerneck 1.48538 -0.00634654 -10.6586
upperneck 19.5095 -0.445125 8.01949
head 5.64806 -0.277015 4.35269
rclavicle -5.68524e-014 -2.54444e-014
rhumerus -39.1662 -4.3222 -59.8785
rradius 47.708
rwrist 358.099
rhand -13.6427 -28.3958
rfingers 7.12502
rthumb 12.4737 -58.0036
lclavicle -5.68524e-014 -2.54444e-014
lhumerus -26.5117 52.6128 4.13832
lradius 56.5229
lwrist 51.7151
lhand -10.2302 17.1242
lfingers 7.12502
lthumb 15.7619 46.5024
rfemur -23.8411 2.48733 20.4569
rtibia 29.2319
rfoot -0.530308 2.76075
rtoes 15.9917
lfemur -7.32604 -18.4287 -8.53359
ltibia 62.5816
lfoot 4.14273 -17.9348
ltoes -16.4926
2120
root -1.13769 17.3817 46.1324 -553.219 -234.88 169.153
lowerback 16.874 2.05793 7.21097
upperback 2.68765 4.42776 3.87733
thorax -6.33745 2.09477 -0.898749
lowerneck 1.47121 -0.162319 -10.9932
upperneck 19.4805 -0.663288 8.18234
head 5.6641 -0.39397 4.45381
rclavicle 1.05654e-013 -7.95139e-016
rhumerus -38.5746 -3.45454 -59.7363
rradius 47.4485
rwrist 357.495
rhand -14.174 -28.5474
rfingers 7.12502
rthumb 11.9613 -58.1856
lclavicle 1.05654e-013 -7.95139e-016
lhumerus -25.8747 53.1369 5.54006
lradius 56.7922
lwrist 50.2718
lhand -12.6881 17.2866
lfingers 7.12502
lthumb 13.3939 46.8361
rfemur -22.7323 1.80084 20.7622
rtibia 28.871
rfoot -0.66706 2.61175
rtoes 16.4545
lfemur -9.14281 -18.4296 -8.41169
ltibia 66.3536
lfoot 3.30421 -16.7171
ltoes -15.7744
2121
root -1.08219 17.4127 46.2612 -553.997 -235.804 168.462
lowerback 16.9252 2.01949 7.1293
upperback 2.86683 4.38967 4.17972
thorax -6.20655 2.09447 -0.522561
lowerneck 1.52619 -0.332618 -11.1507
upperneck 19.4097 -0.879105 8.12395
head 5.65716 -0.512271 4.45119
rclavicle -5.48646e-014 2.3059e-014
rhumerus -37.6374 -2.94407 -59.2657
rradius 46.6795
rwrist 357.595
rhand -14.4131 -28.075
rfingers 7.12502
rthumb 11.7308 -57.7266
lclavicle -5.48646e-014 2.3059e-014
lhumerus -25.3884 53.412 6.89967
lradius 57.0427
lwrist 49.1237
lhand -14.5917 17.8309
lfingers 7.12502
lthumb 11.5585 47.4922
rfemur -21.6577 1.0661 21.1802
rtibia 28.2537
rfoot -0.805685 2.35848
rtoes 16.045
lfemur -11.1541 -18.2545 -8.10334
ltibia 70.1079
lfoot 1.4118 -15.4808
ltoes -16.9337
2122
root -1.03399 17.47 46.3883 -555.142 -236.717 167.302
lowerback 16.976 1.9767 7.24425
upperback 3.04754 4.39056 4.56734
thorax -6.06413 2.11147 -0.172637
lowerneck 1.5575 -0.529304 -11.2335
upperneck 19.3148 -1.12203 8.00524
head 5.64953 -0.641894 4.41441
rclavicle -2.90226e-014 -2.70347e-014
rhumerus -36.7746 -2.75543 -58.7211
rradius 46.0818
rwrist 357.72
rhand -14.3044 -27.7076
rfingers 7.12502
rthumb 11.8356 -57.3532
lclavicle -2.90226e-014 -2.70347e-014
lhumerus -24.8974 53.5046 8.19635
lradius 57.2121
lwrist 48.2596
lhand -16.3474 17.9337
lfingers 7.12502
lthumb 9.86499 47.6826
rfemur -20.5976 0.478865 21.875
rtibia 27.6261
rfoot -1.07348 1.91733
rtoes 16.3414
lfemur -13.5948 -17.9216 -7.45672
ltibia 73.5542
lfoot -1.97517 -15.0539
ltoes -20.3466
2123
root -0.993728 17.5234 46.5073 -556.26 -237.545 166.174
lowerback 17.0659 2.00111 7.36725
upperback 3.26314 4.48131 4.93092
thorax -5.89872 2.17352 0.127642
lowerneck 1.57367 -0.742186 -11.3843
upperneck 19.1469 -1.39414 7.95665
head 5.6247 -0.785721 4.40915
rclavicle 5.12864e-014 -3.18055e-015
rhumerus -36.048 -3.10791 -58.0852
rradius 45.7262
rwrist 358.205
rhand -14.0587 -27.6496
rfingers 7.12502
rthumb 12.0725 -57.2813
lclavicle 5.12864e-014 -3.18055e-015
lhumerus -24.2118 53.3173 10.1652
lradius 57.7006
lwrist 49.0012
lhand -20.6617 16.6856
lfingers 7.12502
lthumb 5.70097 46.5889
rfemur -19.5912 0.166927 22.5672
rtibia 26.9528
rfoot -1.3626 1.20109
rtoes 15.6696
lfemur -16.3761 -17.4115 -6.74274
ltibia 76.8673
lfoot -3.20351 -14.6859
ltoes -17.9511
2124
root -0.943179 17.5825 46.6182 -556.326 -238.291 166.195
lowerback 16.9275 2.14555 6.98358
upperback 3.57137 4.58558 5.09696
thorax -5.53227 2.25432 0.507869
lowerneck 1.47699 -0.951525 -11.4565
upperneck 18.9332 -1.65104 7.87654
head 5.6024 -0.918019 4.37957
rclavicle 1.28415e-013 7.95139e-016
rhumerus -35.3098 -4.11351 -57.3948
rradius 45.5469
rwrist 359.604
rhand -13.9834 -27.5908
rfingers 7.12502
rthumb 12.1451 -57.2183
lclavicle 1.28415e-013 7.95139e-016
lhumerus -23.3858 53.6676 11.8175
lradius 57.688
lwrist 47.6281
lhand -21.4021 17.3373
lfingers 7.12502
lthumb 4.98613 47.2586
rfemur -18.7027 -0.075357 22.5733
rtibia 26.363
rfoot -1.6511 0.609137
rtoes 14.6702
lfemur -18.8246 -16.8995 -6.74084
ltibia 79.8327
lfoot -3.14127 -14.6215
ltoes -10.2456
2125
root -0.897352 17.6131 46.7257 -556.808 -239.062 165.597
lowerback 16.7724 2.20322 6.82341
upperback 3.80402 4.63069 5.36737
thorax -5.23409 2.29949 0.887135
lowerneck 1.41957 -1.13486 -11.4992
upperneck 18.6664 -1.87093 7.74996
head 5.55278 -1.03379 4.33026
rclavicle 7.41467e-014 -7.95139e-015
rhumerus -34.4278 -4.81442 -56.821
rradius 45.2127
rwrist 360.62
rhand -13.8442 -27.3015
rfingers 7.12502
rthumb 12.2793 -56.921
lclavicle 7.41467e-014 -7.95139e-015
lhumerus -22.718 53.5537 13.6011
lradius 58.0689
lwrist 47.4916
lhand -24.4601 17.8993
lfingers 7.12502
lthumb 2.03297 47.8693
rfemur -17.9772 -0.240014 22.8615
rtibia 25.7053
rfoot -1.75536 -0.115573
rtoes 14.7231
lfemur -21.2697 -16.5614 -6.10886
ltibia 82.6492
lfoot -1.5725 -15.5361
ltoes 6.19128
2126
root -0.851085 17.6464 46.8319 -556.638 -239.943 165.998
lowerback 16.9616 2.33194 6.08846
upperback 3.97254 4.70099 5.54684
thorax -5.22958 2.35072 1.46552
lowerneck 1.62529 -1.30849 -11.5958
upperneck 18.2312 -2.10009 7.62475
head 5.40782 -1.1598 4.28813
rclavicle 1.19271e-015 -1.59028e-014
rhumerus -33.5813 -4.93458 -56.2991
rradius 44.687
rwrist 360.943
rhand -13.6093 -27.0709
rfingers 7.12502
rthumb 12.5059 -56.6767
lclavicle 1.19271e-015 -1.59028e-014
lhumerus -22.0446 53.3443 15.1115
lradius 58.0985
lwrist 46.4236
lhand -26.7264 18.0745
lfingers 7.12502
lthumb -0.155853 48.0542
rfemur -17.1361 -0.446992 22.5825
rtibia 25.2505
rfoot -1.93035 -0.771924
rtoes 15.8885
lfemur -23.149 -16.6889 -6.12186
ltibia 85.1078
lfoot 2.69841 -16.2432
ltoes 31.1181
2127
root -0.804288 17.716 46.9348 -557.757 -240.512 164.349
lowerback 16.4947 2.42006 6.78707
upperback 4.12857 4.90343 5.77782
thorax -4.77085 2.46453 1.31007
lowerneck 1.60211 -1.57794 -11.5247
upperneck 17.8188 -2.46556 7.63732
head 5.31917 -1.33093 4.25676
rclavicle -8.74653e-015 3.65764e-014
rhumerus -32.8332 -5.52328 -55.9385
rradius 44.2958
rwrist 361.28
rhand -13.6301 -27.1535
rfingers 7.12502
rthumb 12.4857 -56.7605
lclavicle -8.74653e-015 3.65764e-014
lhumerus -20.5925 53.5576 17.4726
lradius 58.3673
lwrist 45.4922
lhand -28.8405 18.1547
lfingers 7.12502
lthumb -2.19765 48.1232
rfemur -16.8407 -0.615589 23.4934
rtibia 24.9245
rfoot -2.28693 -1.45862
rtoes 16.4334
lfemur -25.5478 -15.9966 -5.47981
ltibia 87.8716
lfoot 0.45139 -17.3869
ltoes 30.2865
2128
root -0.753779 17.7591 47.0367 -557.49 -241.313 164.513
lowerback 16.2494 2.58018 6.54826
upperback 4.2911 5.03425 5.72811
thorax -4.47826 2.54272 1.38093
lowerneck 1.54723 -1.82614 -11.4355
upperneck 17.5734 -2.80431 7.68803
head 5.28485 -1.4856 4.2387
rclavicle -1.31198e-014 -5.40694e-014
rhumerus -32.2265 -6.12683 -55.6404
rradius 44.0396
rwrist 361.679
rhand -13.8007 -27.2575
rfingers 7.12502
rthumb 12.3213 -56.8744
lclavicle -1.31198e-014 -5.40694e-014
lhumerus -18.8585 53.8319 19.7934
lradius 58.3106
lwrist 44.5584
lhand -30.2834 17.9573
lfingers 7.12502
lthumb -3.59118 47.9068
rfemur -16.3711 -0.795157 23.3219
rtibia 24.5675
rfoot -2.6835 -2.02034
rtoes 15.9131
lfemur -27.905 -14.0133 -5.74712
ltibia 90.6968
lfoot -1.96601 -18.8777
ltoes 27.362
2129
root -0.708084 17.7797 47.1369 -558 -242.134 164.004
lowerback 16.3483 2.59465 6.64469
upperback 4.41594 5.07758 5.73563
thorax -4.3898 2.57086 1.32581
lowerneck 1.58204 -2.02118 -11.3783
upperneck 17.253 -3.08274 7.7707
head 5.20673 -1.61292 4.23854
rclavicle -1.19271e-014 -5.56597e-014
rhumerus -31.6654 -6.61911 -55.4564
rradius 43.8214
rwrist 362.228
rhand -14.0426 -27.3358
rfingers 7.12502
rthumb 12.088 -56.9666
lclavicle -1.19271e-014 -5.56597e-014
lhumerus -17.4857 53.4465 21.435
lradius 58.019
lwrist 44.1778
lhand -31.7365 17.531
lfingers 7.12502
lthumb -4.9943 47.4521
rfemur -15.5663 -1.10908 23.4758
rtibia 23.8764
rfoot -2.89132 -2.65096
rtoes 15.8009
lfemur -30.1322 -12.124 -5.70659
ltibia 93.5053
lfoot -4.40624 -20.2258
ltoes 24.3073
2130
root -0.669164 17.8112 47.2291 -559.588 -242.789 162.356
lowerback 16.6238 2.42904 7.10258
upperback 4.55128 4.99254 6.02036
thorax -4.3824 2.53745 1.38109
lowerneck 1.596 -2.05851 -11.4738
upperneck 16.8057 -3.12103 7.70371
head 5.07159 -1.64209 4.22461
rclavicle -7.95139e-015 8.42847e-014
rhumerus -30.8273 -6.55701 -55.3402
rradius 43.6762
rwrist 362.408
rhand -14.3924 -27.5532
rfingers 7.12502
rthumb 11.7508 -57.2036
lclavicle -7.95139e-015 8.42847e-014
lhumerus -17.1991 53.6391 22.3799
lradius 58.2111
lwrist 43.5257
lhand -33.3466 17.6412
lfingers 7.12502
lthumb -6.54883 47.5199
rfemur -14.9415 -1.49515 24.2424
rtibia 23.6679
rfoot -3.26898 -3.22123
rtoes 15.8999
lfemur -32.1931 -11.1043 -5.35252
ltibia 96.1669
lfoot -7.22793 -20.7292
ltoes 20.8273
